<?xml version="1.0" standalone="no"?>
<!DOCTYPE svg PUBLIC "-//W3C//DTD SVG 1.1//EN" "http://www.w3.org/Graphics/SVG/1.1/DTD/svg11.dtd" >
<svg xmlns="http://www.w3.org/2000/svg">
<metadata>
Created by FontForge 20120731 at Thu Sep 29 18:10:04 2016
 By admin
</metadata>
<defs>
<font id="iconfont" horiz-adv-x="1024" >
  <font-face 
    font-family="iconfont"
    font-weight="500"
    font-stretch="normal"
    units-per-em="1024"
    panose-1="2 0 6 3 0 0 0 0 0 0"
    ascent="896"
    descent="-128"
    x-height="792"
    bbox="3 -189.222 1236 895"
    underline-thickness="50"
    underline-position="-100"
    unicode-range="U+0078-E617"
  />
<missing-glyph horiz-adv-x="374" 
d="M34 0v682h272v-682h-272zM68 34h204v614h-204v-614z" />
    <glyph glyph-name=".notdef" horiz-adv-x="374" 
d="M34 0v682h272v-682h-272zM68 34h204v614h-204v-614z" />
    <glyph glyph-name=".null" horiz-adv-x="0" 
 />
    <glyph glyph-name="nonmarkingreturn" horiz-adv-x="341" 
 />
    <glyph glyph-name="x" unicode="x" horiz-adv-x="1001" 
d="M281 543q-27 -1 -53 -1h-83q-18 0 -36.5 -6t-32.5 -18.5t-23 -32t-9 -45.5v-76h912v41q0 16 -0.5 30t-0.5 18q0 13 -5 29t-17 29.5t-31.5 22.5t-49.5 9h-133v-97h-438v97zM955 310v-52q0 -23 0.5 -52t0.5 -58t-10.5 -47.5t-26 -30t-33 -16t-31.5 -4.5q-14 -1 -29.5 -0.5
t-29.5 0.5h-32l-45 128h-439l-44 -128h-29h-34q-20 0 -45 1q-25 0 -41 9.5t-25.5 23t-13.5 29.5t-4 30v167h911zM163 247q-12 0 -21 -8.5t-9 -21.5t9 -21.5t21 -8.5q13 0 22 8.5t9 21.5t-9 21.5t-22 8.5zM316 123q-8 -26 -14 -48q-5 -19 -10.5 -37t-7.5 -25t-3 -15t1 -14.5
t9.5 -10.5t21.5 -4h37h67h81h80h64h36q23 0 34 12t2 38q-5 13 -9.5 30.5t-9.5 34.5q-5 19 -11 39h-368zM336 498v228q0 11 2.5 23t10 21.5t20.5 15.5t34 6h188q31 0 51.5 -14.5t20.5 -52.5v-227h-327z" />
    <glyph glyph-name="uniE600" unicode="&#xe600;" 
d="M180 -133l46 268q4 25 -14 42l-194 189q-21 21 -12 49.5t39 33.5l268 39q25 3 36 26l120 243q14 27 44 27t43 -27l120 -243q11 -23 36 -26l268 -39q30 -5 39.5 -33.5t-12.5 -49.5l-194 -189q-18 -17 -14 -42l46 -268q5 -29 -19 -46.5t-51 -3.5l-240 126q-22 11 -45 0
l-240 -126q-26 -14 -50.5 3.5t-19.5 46.5zM535 -6l237 -125q9 -4 17 1.5t7 15.5l-46 264q-4 25 14 43l192 187q7 7 4 16.5t-13 11.5l-265 38q-25 4 -36 27l-119 240q-4 9 -14 9t-15 -9l-118 -240q-12 -23 -37 -27l-265 -38q-10 -2 -13 -11.5t4 -16.5l192 -187q18 -18 14 -43
l-45 -264q-2 -10 6 -15.5t17 -1.5l237 125q23 12 45 0z" />
    <glyph glyph-name="uniE601" unicode="&#xe601;" 
d="M1017 591l-118 -331q-12 -34 -42 -55t-67 -21h-459q-41 0 -73.5 26t-40.5 67l-77 393l-26 118h-86q-11 0 -18 7.5t-7 17.5t7 17.5t18 7.5h106h1t1 -1q3 0 5 -1q3 0 4 -1q2 -1 4 -2.5t3.5 -3.5t2.5 -4l2 -4q0 -1 0.5 -1.5t0.5 -1.5l26 -118h755q43 0 67.5 -34.5
t10.5 -74.5v0zM966 637q-10 14 -27 14h-745l72 -365q5 -23 23 -38t42 -15h459q21 0 38 12t24 32l118 331q5 15 -4 29v0zM313 130q41 0 70.5 -29.5t29.5 -70.5t-29.5 -70.5t-71 -29.5t-70.5 29.5t-29 70.5t29 70.5t71 29.5v0zM313 -20q21 0 35.5 14.5t14.5 35.5t-14.5 35.5
t-35.5 14.5t-36 -14.5t-15 -35.5t15 -35.5t36 -14.5v0zM755 130q41 0 70.5 -29.5t29.5 -70.5t-29.5 -70.5t-71 -29.5t-70.5 29.5t-29 70.5t29 70.5t71 29.5v0zM755 -20q21 0 35.5 14.5t14.5 35.5t-14.5 35.5t-35.5 14.5t-36 -14.5t-15 -35.5t15 -35.5t36 -14.5v0zM755 -20z
" />
    <glyph glyph-name="uniE602" unicode="&#xe602;" 
d="M256 383l256 -386l256 386h-125v385h-258v-385h-129z" />
    <glyph glyph-name="uniE603" unicode="&#xe603;" 
d="M768 385l-256 386l-256 -386h125v-385h258v385h129z" />
    <glyph glyph-name="uniE604" unicode="&#xe604;" horiz-adv-x="1093" 
d="M32 96h1024v-192h-1024v192zM32 864h1024v-192h-1024v192zM32 480h1024v-192h-1024v192z" />
    <glyph glyph-name="uniE605" unicode="&#xe605;" 
d="M512 135l50 50l397 398l-49 50l-398 -398l-398 398l-49 -50l397 -398z" />
    <glyph glyph-name="uniE606" unicode="&#xe606;" 
d="M512 633l-447 -448l49 -50l398 398l398 -398l49 50l-397 398z" />
    <glyph glyph-name="uniE607" unicode="&#xe607;" 
d="M769 623v21q0 12 -3 45t-9 59.5t-19 52.5t-31 34q-21 7 -47.5 0.5t-55 -22t-52.5 -32t-39 -29.5l-16 -12q-10 10 -28 26.5t-56 50t-67 48t-36 -1.5q-4 -10 -22 -51t-23.5 -53.5t-19 -44.5t-20 -49t-15.5 -41.5t-15 -46.5q-23 -131 19.5 -230.5t143.5 -160.5q-4 -9 -6 -23
q-2 -51 30 -145.5t56 -136.5l85 -3q-10 17 -23.5 46.5t-38 101.5t-26.5 122q116 -42 223.5 -4t196.5 151q25 32 51.5 80t41 79t45.5 104q5 10 -16.5 20.5t-55.5 18.5t-68.5 14t-58.5 9zM544 -84q14 -5 28.5 -6.5t20.5 -0.5t21 4q39 66 100.5 90.5t162.5 28.5q2 6 7.5 19
t6 17.5t-1.5 19.5q-267 8 -345 -172zM47 88q-4 -6 -6.5 -13t-1.5 -15.5t2 -14t3.5 -14t2.5 -10.5q50 10 90.5 4.5t74.5 -24.5t57 -41.5t36 -47.5q45 1 74 11q0 22 -24 52t-64.5 58.5t-106 45t-137.5 9.5z" />
    <glyph glyph-name="uniE608" unicode="&#xe608;" 
d="M48 79q-9 0 -15.5 -6.5t-6.5 -16t6.5 -16.5t16.5 -7q29 0 70 -13q83 -28 146 -97q7 -8 17 -8q9 0 15 6q7 7 7.5 16t-5.5 16q-32 35 -70 61t-66 38t-57.5 18.5t-39.5 7.5t-18 1zM941 77q-4 -1 -13 0.5t-27 -1t-38.5 -5.5t-47.5 -12.5t-53 -22t-55.5 -34t-54.5 -49.5
q-6 -6 -6 -15.5t7 -16.5q7 -6 16 -6q10 0 16 7q70 75 168 100q50 12 85 10h1q10 0 16.5 6.5t6.5 15.5q0 10 -6 16.5t-15 6.5zM998 355q-35 85 -157 198q81 52 117 139q6 16 -7 26q-104 87 -267 135q-171 51 -312 30q-150 -22 -217 -122q-1 -2 -2 -3q-6 -10 -24 -50
q-8 -17 -13 -28q-2 -6 -4 -10q-1 -4 -1 -7q-12 -46 -6 -94v-5q0 -11 1.5 -31.5t13 -79t31.5 -116.5q40 -115 106 -219q84 -130 205 -234q6 -6 15 -6q10 0 17 8q6 7 5.5 16.5t-7.5 15.5q-116 100 -196 224q-63 99 -101 208q-9 26 -17 53q85 -113 229.5 -194.5t269.5 -98.5h4
q12 0 19 10q30 48 41 96.5t0 84.5q63 -3 125.5 3.5t83.5 11.5t34 8q9 3 13.5 12t0.5 19z" />
    <glyph glyph-name="uniE609" unicode="&#xe609;" 
d="M384 -97q-16 0 -27 13q-26 29 -61.5 50.5t-65 31.5t-60.5 16t-43 6.5t-18 0.5q-15 0 -25.5 10.5t-11 25.5t10 25.5t25.5 11.5q7 0 23.5 -1t53 -8t72 -19t78.5 -39t76 -63q10 -12 9 -26.5t-12 -24.5q-10 -10 -24 -10zM626 -96q-14 0 -25 9q-11 10 -11.5 25t9.5 26
q34 37 77.5 63.5t79 39t71.5 19t52 7.5t23 1q15 0 25.5 -11t10 -26t-11 -25t-24.5 -10h-1q-6 0 -17.5 -1t-42.5 -6.5t-60 -16t-65.5 -32t-63.5 -51.5q-11 -11 -26 -11zM562 87h-114q-5 0 -11 1q-91 12 -166.5 63.5t-125.5 136.5q-58 99 -70 216t26 209q9 21 33 22h11
q103 0 191 -39q63 116 143 175q4 3 9 6q18 7 35 -3q2 -2 5 -4q79 -58 142 -176q90 41 196 41h11q23 -1 32 -22q38 -92 26 -209t-70 -216q-50 -85 -125.5 -136.5t-166.5 -63.5q-6 -1 -11 -1v0zM505 -128q-15 0 -25.5 10.5t-10.5 25.5v215q0 15 10.5 25.5t25.5 10.5
t25.5 -10.5t10.5 -25.5v-215q0 -15 -10.5 -25.5t-25.5 -10.5z" />
    <glyph glyph-name="uniE60A" unicode="&#xe60a;" 
d="M411 -127q-16 0 -23 16q-9 26 -69 134q-31 57 -73 162q-34 85 -54 120q-23 41 -3 79q12 21 34 33.5t48 12.5q31 0 57 -17l2 244q1 15 5.5 30.5t13.5 31.5t26.5 26t41.5 10q37 0 58 -25q25 -28 23 -73l3 -110q17 7 37 7q51 0 75 -32q5 -7 8 -15q20 10 46 7q38 -2 59 -30
q10 -12 15 -27q20 10 46 4q28 -7 45 -29.5t21.5 -44.5t3.5 -42v-104v-16q0 -10 -3 -37.5t-9 -55t-19.5 -65.5t-32.5 -71q-50 -89 -58 -106q-2 -4 -4 -7q-8 -11 -21 -10h-299zM271 378q-28 0 -39 -20q-6 -12 2 -27q22 -37 57 -125q41 -103 71 -157q45 -80 65 -124h270
q12 23 53 97q17 30 29 64.5t17.5 58t8 50t3 32.5t0.5 13l-1 106v2q0 1 0.5 6.5t-1 14t-4 16.5t-9.5 15t-17 10q-4 1 -8 1q-16 0 -23 -27l-2 -14q-2 -10 -10 -15.5t-18 -4t-15.5 9.5t-5.5 18q1 6 3 16q5 40 -9 57q-8 10 -24.5 11.5t-25 -4.5t-10.5 -24l1 -25
q0 -11 -6.5 -18.5t-15.5 -8.5q-10 -2 -17.5 4t-9.5 17q-3 14 -2 32l-1 16q0 4 1 8q4 20 -4.5 31.5t-34.5 12.5q-14 0 -23 -7t-13 -26l2 -52q0 -10 -6 -18t-16 -9t-17.5 5t-9.5 16q-6 29 -2 61l-5 183v3q1 23 -10 36q-7 8 -22 8q-12 0 -20.5 -6t-11.5 -15.5t-4 -15t-1 -10.5
l-4 -316q0 -10 -5.5 -17t-14.5 -8.5t-16.5 3t-10.5 13.5q-18 47 -58 47v0zM414 895q-68 0 -115.5 -48t-47.5 -115q0 -42 19 -77t52 -58v57q-28 33 -28 77q0 50 35 85t85 35t85 -35t35 -85q0 -43 -27 -76v-57q33 22 51.5 57.5t18.5 76.5q0 67 -47.5 115t-115.5 48z" />
    <glyph glyph-name="uniE60B" unicode="&#xe60b;" horiz-adv-x="1161" 
d="M982 196h-713l-134 612h-103v56h148l134 -612h624l112 478h-717v55h787zM357 618h524v-55h-524v55zM408 428h436v-56h-436v56zM375 -96q-48 0 -82 34t-34 82t34 82t82 34t82 -34t34 -82t-34 -82t-82 -34zM375 80q-25 0 -42.5 -17.5t-17.5 -42.5t17.5 -42.5t42.5 -17.5
t42.5 17.5t17.5 42.5t-17.5 42.5t-42.5 17.5zM899 -96q-48 0 -82 34t-34 82t34 82t82 34t82 -34t34 -82t-34 -82t-82 -34zM899 80q-25 0 -42.5 -17.5t-17.5 -42.5t17.5 -42.5t42.5 -17.5t43 17.5t18 42.5t-18 42.5t-43 17.5z" />
    <glyph glyph-name="uniE60C" unicode="&#xe60c;" 
d="M512 424v-80h-464v80h464zM976 851h-696v-312h78v234h538v-778h-538v233h-78v-311h696v934zM482 223v-109l269 270l-269 270v-109l161 -161z" />
    <glyph glyph-name="uniE60D" unicode="&#xe60d;" 
d="M361 93v474q0 9 -6.5 15.5t-15 6.5t-15 -6.5t-6.5 -15.5v-474q0 -9 6.5 -15t15 -6t15 6t6.5 15zM534 93v474q0 9 -6.5 15.5t-15.5 6.5t-15.5 -6.5t-6.5 -15.5v-474q0 -9 6.5 -15t15.5 -6t15.5 6t6.5 15zM878 610q-9 0 -15 -6t-6 -15v-582q0 -18 -13 -30.5t-30 -12.5h-604
q-17 0 -30 12.5t-13 30.5v582q0 9 -6 15t-15 6q-17 0 -21 -16h-1v-587q0 -36 25.5 -61t61.5 -25h603q35 0 60.5 25t25.5 61v582q0 9 -6.5 15t-15.5 6zM943 761h-248l-80 79q-6 7 -16 7h-1h-172h-1q-10 1 -16 -7l-80 -79h-248q-9 0 -15 -6.5t-6 -15t6 -15t15 -6.5h259
q10 0 17 7l80 79h150l79 -79q8 -8 17 -7h1h259q9 0 15 6.5t6 15t-6 15t-15 6.5zM706 93v474q0 9 -6.5 15.5t-15.5 6.5t-15 -6.5t-6 -15.5v-474q0 -9 6 -15t15 -6t15.5 6t6.5 15zM706 93z" />
    <glyph glyph-name="uniE60E" unicode="&#xe60e;" horiz-adv-x="1000" 
d="M955 17q-8 0 -14 5t-8 13t-6.5 22t-24.5 49.5t-48 65.5q-123 129 -363 136v-185q0 -14 -12.5 -20.5t-23.5 1.5l-436 316q-9 7 -9 18.5t9 18.5l436 318q11 8 23.5 1.5t12.5 -20.5v-196q67 -2 134 -20q136 -36 223 -125q134 -136 130 -375q0 -9 -6 -15.5t-15 -7.5h-2z
M469 353q151 0 265 -47q92 -38 155 -105q19 -21 36 -44q-23 139 -109 226q-43 44 -98 73.5t-107.5 40.5t-82.5 14.5t-53 3.5h-6q-9 -1 -16 6t-7 17v174l-375 -273l375 -272v164q0 9 6.5 15.5t16.5 6.5z" />
    <glyph glyph-name="uniE60F" unicode="&#xe60f;" 
d="M977 340l-512 -368q-17 -8 -33 -9t-28 15t-12 44v158l-289 -208q-17 -8 -33 -9t-28 15t-12 45v721q-1 32 11 47t27.5 14t34.5 -11l289 -208v160q0 25 6.5 39.5t17.5 17.5t23 0.5t26 -9.5l512 -367q17 -18 17 -43.5t-17 -43.5zM90 46l362 253v-253l483 337l-483 338v-253
l-362 253v-675z" />
    <glyph glyph-name="uniE610" unicode="&#xe610;" 
d="M436 178q5 10 14 27t40 69.5t63.5 103t82 118.5t98 126t108.5 115t117 95q-16 -42 -19.5 -108t2.5 -127t17 -108q-48 -11 -123.5 -75t-148.5 -149t-137.5 -174t-98.5 -155q-89 112 -190.5 194t-196.5 133l147 142z" />
    <glyph glyph-name="uniE611" unicode="&#xe611;" 
d="M240 384l491 491l39 -39l-490 -491zM731 -106l-491 491l40 39l490 -490z" />
    <glyph glyph-name="uniE612" unicode="&#xe612;" 
d="M482 886h55v-360h-55v360zM657 808v-58q120 -46 195 -152.5t75 -238.5q0 -114 -56 -210t-152 -152t-209.5 -56t-210 56t-152.5 152t-56 210q0 132 75.5 238.5t195.5 152.5v58q-144 -47 -235 -170.5t-91 -278.5q0 -97 37.5 -184.5t101 -151t151 -101t183.5 -37.5t184 37.5
t151.5 101t101 151t37.5 184.5q0 155 -91 278.5t-235 170.5z" />
    <glyph glyph-name="uniE613" unicode="&#xe613;" 
d="M926 408q0 38 -21 68.5t-53 39.5h-3h-217q-1 0 -2 2v3q14 45 18 96.5t2 72.5t-4 30v1q0 46 -29 79t-70 33q-38 0 -65.5 -28.5t-32.5 -70.5q-6 -53 -24 -97.5t-38 -70.5t-45.5 -46t-40.5 -27.5t-28 -12.5h-4h-2h-133q-15 0 -25.5 -11.5t-10.5 -28.5v-466q0 -16 10.5 -27
t25.5 -11h615h11q18 0 34 6t25 15t16 18t10 15l2 7q4 6 22.5 101t35.5 185.5t17 91.5q2 7 3 15v2q1 9 1 16zM225 20q0 -9 -6 -15.5t-15 -6.5t-15.5 6.5t-6.5 15.5v375q0 9 6.5 15.5t15.5 6.5t15 -6.5t6 -15.5v-375z" />
    <glyph glyph-name="uniE614" unicode="&#xe614;" 
d="M695 784q-105 0 -182 -72q-77 72 -183 72q-110 0 -187.5 -76t-77.5 -184q0 -43 15 -89t41 -87.5t60 -82.5t71 -76.5t74 -67.5t70.5 -57t59.5 -43t42 -28l15 -10q9 6 25 16.5t63 44t89 68.5t94 86.5t89 101.5t62.5 110t25.5 114q0 108 -78 184t-188 76z" />
    <glyph glyph-name="uniE615" unicode="&#xe615;" horiz-adv-x="1261" 
d="M1189 438h-227q-20 0 -33.5 -13.5t-13.5 -32.5v-15q0 -20 13.5 -33.5t33.5 -13.5h227q20 0 33.5 13.5t13.5 33.5v15q0 19 -13.5 32.5t-33.5 13.5zM661 842q-37 -30 -156.5 -103t-169.5 -109q-1 0 -2 -2.5t-2 -2.5q-2 -2 -9 -7.5t-13.5 -9t-23.5 -7t-41 -3.5h-133
q-56 0 -56 -52v-322q0 -54 56 -54h134q24 0 40.5 -3.5t23 -7t13.5 -9.5t9 -7q1 0 2 -2.5t2 -3.5q55 -40 174 -115t152 -100q10 -7 24.5 -12t31 -4.5t28 19t11.5 53.5v812q0 35 -11.5 52.5t-28 17.5t-31 -5.5t-24.5 -12.5zM871 620q9 -16 25 -19.5t29 7.5l187 157
q13 12 16 31t-6 35l-7 12q-9 16 -24.5 19.5t-28.5 -7.5l-188 -158q-13 -11 -16 -30t6 -35zM925 160q-13 11 -29 7.5t-25 -19.5l-7 -12q-9 -16 -6 -35t16 -30l187 -158q14 -11 29.5 -7.5t24.5 19.5l7 12q9 16 6 35t-16 30z" />
    <glyph glyph-name="uniE616" unicode="&#xe616;" 
d="M512 -77h-264q-50 0 -86 21q-59 34 -70 103q-5 31 0 97q5 71 25 131q20 57 53 94q43 46 113 53q18 1 35 -10q43 -28 58 -36q68 -38 138 -37q75 1 146 43q27 16 44 29q19 13 43 10q59 -7 98 -42q28 -26 49 -72q21 -45 32 -114q10 -59 8 -123q-1 -60 -37 -99
q-32 -36 -82 -44q-21 -4 -39 -4h-264zM282 615q-2 93 66.5 161.5t164.5 68.5q94 0 162.5 -68.5t67.5 -163.5q0 -93 -68 -161t-163 -68t-163.5 69t-66.5 162z" />
    <glyph glyph-name="uniE617" unicode="&#xe617;" horiz-adv-x="1025" 
d="M881 743h-738q-46 0 -78.5 -32.5t-32.5 -77.5v-498q0 -45 32.5 -77.5t78.5 -32.5h739q45 0 77.5 32.5t32.5 77.5v498q0 45 -32.5 77.5t-78.5 32.5zM647 524h153q9 0 16.5 -9.5t7.5 -19.5t-7.5 -19.5t-16.5 -9.5h-153q-9 0 -16.5 9.5t-7.5 19.5t7.5 19.5t16.5 9.5z
M647 401h153q9 0 16.5 -9.5t7.5 -19.5t-7.5 -19.5t-16.5 -9.5h-153q-9 0 -16.5 9.5t-7.5 19.5t7.5 19.5t16.5 9.5zM146 187q-9 2 -14 9.5t-4 16.5q11 55 49 95.5t91 56.5q-28 15 -44.5 42t-16.5 59q0 48 34 82t81.5 34t81.5 -34t34 -82q0 -32 -17 -59t-44 -42
q53 -16 91 -56.5t49 -96.5q1 -9 -4 -16.5t-14 -9.5h-4zM874 220h-227q-9 0 -16.5 9.5t-7.5 19.5t7.5 19.5t16.5 9.5h227q9 0 16.5 -9.5t7.5 -19.5t-7.5 -19.5t-16.5 -9.5zM874 220z" />
  </font>
</defs>
</svg>
